<?xml version="1.0" encoding="utf-8"?>
<!-- Generator: Adobe Illustrator 23.0.3, SVG Export Plug-In . SVG Version: 6.00 Build 0)  -->
<svg version="1.1" id="Capa_1" xmlns="http://www.w3.org/2000/svg" xmlns:xlink="http://www.w3.org/1999/xlink" x="0px" y="0px"
	 viewBox="0 0 1200 1200" enable-background="new 0 0 1200 1200" xml:space="preserve">
<path d="M504.937,735.737c-1.776,0-3.526-0.698-4.811-1.974c-1.308-1.3-1.839-3.01-1.462-4.693c0.441-1.964,2.038-3.526,4.496-4.398
	c0.005,0,0.01-0.003,0.016-0.005c0.577-0.202,1.448-0.449,2.314-0.472c3.646-0.096,5.704,2.314,6.02,4.626
	c0.416,3.035-1.719,5.923-4.967,6.722C506.014,735.672,505.474,735.737,504.937,735.737z M487.295,817.513
	c-0.398-0.054-0.886-0.101-1.444-0.08c-1.955,0.091-3.622,1.087-4.571,2.732c-1.981,3.43,0.038,8.31,0.66,9.643
	c-0.556,2.161-0.052,4.545,1.352,6.294c0.956,1.188,2.513,1.73,3.991,1.391c0.828-0.189,1.555-0.63,2.098-1.243
	c0.821-0.096,2.031-0.298,3.208-1.084c1.877-1.263,2.889-3.57,2.618-5.931c0.126-0.067,0.245-0.135,0.359-0.205
	c0.222,0.34,0.496,0.643,0.809,0.903c1.977,1.619,4.963,4.068,8.805,4.353l0.344-0.01c0.042,0.036,0.083,0.07,0.125,0.106
	c0.41,0.337,0.972,0.799,1.719,1.178c2.588,1.321,6.219,0.623,8.261-1.583c0.102-0.112,0.2-0.228,0.289-0.35
	c0.195,0.052,0.384,0.093,0.566,0.132c-0.35,0.293-0.704,0.646-1.03,1.079c-0.868,1.16-1.138,2.364-1.317,3.163
	c-0.035,0.161-0.064,0.319-0.013,0.28c-0.108,0.14-0.503,0.47-0.767,0.688c-1,0.83-2.75,2.283-3.216,4.685
	c-1.88,1.095-3.139,3.002-3.368,5.103c-0.062,0.573-0.047,1.144,0.043,1.697c-0.688,0.2-1.318,0.584-1.815,1.121
	c-0.819,0.885-1.192,2.091-1.018,3.282c0.013,0.091,0.032,0.192,0.045,0.283c-1.053-0.95-2.42-1.605-4.06-1.839
	c-2.736-0.379-6.662,0.363-8.847,2.558c-2.832,2.851-2.424,6.39-0.559,8.414c0.432,0.468,0.937,0.825,1.468,1.13
	c-0.139,0.221-0.31,0.422-0.415,0.663c-0.075,0.174-0.139,0.348-0.192,0.524c-2.96-1.09-5.075,0.462-6.193,1.681
	c-1.117,1.222-1.704,2.888-1.614,4.569c0.078,1.44,0.638,2.755,1.59,3.757c-0.08,0.467-0.14,0.934-0.18,1.404
	c-1.011,0.732-1.658,1.925-1.647,3.259l0.052,6.673c0.016,1.881,0.828,3.134,1.849,3.995c-1.314,1.788-1.455,4.247-0.379,6.582
	c0.156,0.335,0.332,0.664,0.511,0.991c0.11,0.202,0.202,0.397,0.283,0.387c-0.023,0.259-0.337,0.965-0.545,1.432l-0.193,0.438
	c-1.68,3.855-0.833,6.434,0.173,7.918c0.025,0.036,0.048,0.07,0.074,0.104c-0.562,1.053-0.625,2.312-0.152,3.43
	c0.357,0.841,0.985,1.52,1.762,1.943c0.021,0.099,0.04,0.215,0.06,0.353c0.16,1.165,0.457,3.334-0.096,4.115
	c-0.174,0.246-0.398,0.451-0.61,0.667c-0.488,0.496-1.094,1.11-1.62,1.925c-1.849,2.843-1.409,6.406,1.011,8.284
	c1.911,1.492,4.653,1.564,6.823,0.187c0.086-0.055,0.17-0.112,0.252-0.166c0.272,0.236,0.584,0.454,0.942,0.649
	c0.036,0.019,0.071,0.021,0.107,0.04c-0.614,0.075-1.121,0.261-1.442,0.416c-0.995,0.488-1.753,1.305-2.248,2.423
	c-0.673,1.507-1.134,3.095-1.371,4.727c-0.977,0.768-1.768,1.824-2.252,3.087c-0.719,1.863-0.625,3.668-0.558,4.984
	c0.039,0.75,0.23,1.388,0.511,1.925c-0.462,0.464-0.844,1.035-1.148,1.712c-0.099,0.223-0.192,0.467-0.287,0.768
	c-0.431,1.398-0.405,2.851-0.383,4.133c0.008,0.415,0.021,0.817-0.004,1.167c-0.058,0.843-0.147,2.117,0.285,3.487
	c1.182,3.752,4.962,4.971,6.574,5.492c0.4,0.127,0.813,0.192,1.225,0.192c0.664,0,1.324-0.166,1.919-0.493
	c0.371-0.204,0.694-0.436,0.988-0.682c0.008,0.034,0.007,0.066,0.015,0.099c0.501,1.948,1.762,3.593,3.456,4.509
	c0.067,0.036,0.135,0.07,0.206,0.106c0.052,1.282-0.058,2.558-0.329,3.811c-0.064,0.008-0.127,0.013-0.188,0.021
	c-4.337,0.529-7.888,4.361-8.088,8.73c-0.008,0.184-0.01,0.371-0.01,0.558c-0.267,0.205-0.521,0.423-0.751,0.659
	c-1.458,1.492-2.017,3.658-1.496,5.791c0.544,2.221,2.17,4.024,4.241,4.704c1.858,0.612,3.875,0.319,5.559-0.628
	c-0.023,0.119-0.043,0.241-0.058,0.361c-0.15,1.152,0.023,2.13,0.149,2.843c0.034,0.189,0.08,0.376,0.025,0.467
	c-0.699,0.285-2.152,0.88-3.061,2.462c-0.991,1.715-0.66,3.466-0.553,4.039c0.55,2.937,1.847,5.708,3.75,8.011
	c0.115,0.138,0.237,0.267,0.368,0.387c-0.175,0.519-0.288,1.144-0.228,1.865c0.114,1.313,0.765,2.454,1.939,3.396
	c1.249,1.004,5.056,4.039,9.218,2.148c0.493-0.226,0.934-0.547,1.297-0.947c0.638-0.703,1.064-1.471,1.341-2.239
	c0.193,0.145,0.392,0.283,0.594,0.415c0.065,0.742,0.243,1.489,0.541,2.221c0.638,1.57,1.716,2.825,3.043,3.619
	c-0.039,0.099-0.075,0.2-0.106,0.304c-0.484,1.567-0.761,4.704,2.82,8.097c0.524,0.498,2.102,1.85,4.194,2.371
	c-0.489,0.4-0.94,0.854-1.343,1.357c-0.591,0.738-0.849,1.641-0.836,2.545c-0.036-0.023-0.071-0.051-0.108-0.075
	c-3.72-2.428-8.214-3.583-12.627-3.222c-1.202,0.093-2.297,0.729-2.977,1.725c-0.68,0.994-0.873,2.244-0.524,3.399
	c0.815,2.696,2.657,4.667,4.001,6.107c1.396,1.494,3.305,3.541,6.08,4.486c2.011,0.685,3.976,0.625,5.551,0.571
	c0.835-0.023,1.619-0.054,2.247,0.036c0.891,0.125,1.878,0.545,2.936,1.248c0.143,0.095,0.27,0.21,0.409,0.31
	c-0.05,0.022-0.109,0.03-0.159,0.053c-3.521,1.653-5.565,6.182-4.464,9.887c1.315,4.431,6.159,5.339,9.364,5.941
	c0.627,0.117,1.225,0.226,1.741,0.358c0.451,0.117,0.737,0.205,0.916,0.272c0.243,0.589,0.694,1.487,1.629,2.231
	c1.431,1.129,2.956,1.162,4.041,1.007c0.08,0.145,0.161,0.293,0.228,0.418c0.376,0.693,0.802,1.479,1.392,2.234
	c0.223,0.285,0.467,0.555,0.715,0.822c0.021,0.023,0.042,0.044,0.062,0.065c-0.01,0.088-0.025,0.2-0.047,0.345
	c-0.257,1.645-0.755,3.246-1.479,4.75c-0.564,1.173-0.52,2.545,0.117,3.681c0.637,1.134,1.789,1.884,3.083,2.013
	c0.549,0.052,1.094,0.078,1.633,0.078c1.676,0,3.294-0.254,4.836-0.604c0.16,0.66,0.472,1.35,1.058,2.005
	c1.265,1.419,2.873,1.609,3.825,1.64c0.435,0.197,1.096,0.454,1.947,0.514c0.119,0.008,0.237,0.01,0.354,0.01
	c1.682,0,3.143-0.815,4.138-2.174c0.664,0.449,1.595,0.823,2.881,0.789l4.701-0.14c0.098-0.003,0.276-0.014,0.481-0.035
	c0.178,1.26,0.761,2.439,1.656,3.425c-2.261,0.931-4.388,2.203-6.24,3.854c-1.068,0.955-1.542,2.405-1.243,3.806
	c0.58,2.719,2.546,5.067,5.26,6.281c2.714,1.217,5.773,1.118,8.191-0.254c0.358-0.205,0.71-0.441,1.108-0.714
	c0.679,0.313,1.33,0.672,1.986,1.025c-0.923-0.106-1.884-0.065-2.889,0.163c-0.289,0.003-0.582,0.036-0.876,0.104
	c-1.786,0.418-3.008,1.974-3.076,3.723c-0.544,2.151,0.23,3.575,0.974,4.379c0.89,0.978,1.951,1.271,2.277,1.359
	c1.776,0.501,3.606,0.773,5.443,0.809c0.025,0,0.051,0,0.077,0c1.943,0,3.609-1.406,3.929-3.329c0.219-1.313-0.061-2.635-0.687-3.79
	c1.169,0.929,2.313,1.911,3.405,3.015c0.41,0.419,0.871,0.889,1.412,1.344c-0.767,0.891-1.299,1.933-1.475,2.836
	c-0.889,4.597,2.751,5.622,3.471,5.762c0.092,0.21,0.201,0.449,0.339,0.729c0.825,1.668,2.424,2.859,4.374,3.261
	c0.602,0.127,1.174,0.169,1.694,0.169c0.581,0,1.099-0.052,1.522-0.093c0.608-0.057,1.417-0.187,2.261-0.693
	c1.127-0.674,1.902-1.762,2.182-3.061c0.302-1.401-0.023-2.965-0.87-4.182c-0.185-0.267-0.393-0.519-0.673-0.828
	c-0.095-0.558-0.293-1.369-0.799-2.197c0.964-0.077,1.924-0.197,2.889-0.228c-0.573,1.129-0.582,2.48,0.01,3.632
	c0.419,0.812,1.092,1.437,1.891,1.801c-0.527,1.144-0.663,2.441-0.361,3.754c0.736,3.186,4.103,5.944,6.845,6.995
	c0.309,0.636,0.601,1.422,0.904,2.242c0.881,2.374,1.88,5.062,4.222,6.948c0.389,0.314,1.301,1.048,2.642,1.271
	c1.672,0.298,3.286-0.244,4.413-1.466c2.044-2.208,1.475-5.581,1.135-6.924c-0.226-0.895,0.228-1.868,0.393-1.935
	c-0.036,0.485,0.016,0.975,0.157,1.445c1.558,5.191,6.839,8.388,12.022,7.256l0.738-0.163c0.41-0.093,0.939-0.213,1.254-0.257
	c0.126,0.153,0.221,0.329,0.327,0.495c0.239,0.376,0.481,0.747,0.748,1.095c1.798,2.34,4.65,3.666,7.541,3.666
	c0.981,0,1.965-0.153,2.915-0.47c0.541-0.182,1.038-0.477,1.455-0.866c0.567-0.529,0.977-1.131,1.319-1.756
	c0.08,0.266,0.171,0.507,0.259,0.693c0.773,1.614,2.17,2.317,3.342,2.664c0.1,0.516,0.296,1.072,0.651,1.627
	c0.839,1.31,2.046,1.793,2.579,2.003c0.48,0.195,0.918,0.503,1.267,0.89c0.737,0.817,1.777,1.295,2.876,1.318
	c0.029,0,0.057,0,0.086,0c1.069,0,2.095-0.431,2.845-1.193c1.671-1.704,2.549-4.045,2.409-6.429
	c-0.038-0.638-0.153-1.266-0.289-1.889c-0.228-1.04-0.763-3.476-2.877-5.031c-2.168-1.595-4.714-1.333-5.885-1.214l-0.407,0.01
	c-1.706,0.034-4.459,0.112-6.009,2.201c-0.184-1.881-0.956-3.714-2.153-5.084c-1.476-1.684-3.327-2.701-4.973-3.484
	c0.344-0.527,0.612-1.103,0.789-1.707c0.021-0.07,0.039-0.14,0.057-0.21c2.776,2.382,5.869,3.105,8.658,1.995
	c0.476-0.189,0.899-0.418,1.266-0.641c1.899,2.112,4.577,3.513,7.398,3.86c1.031,0.125,2.065-0.151,2.889-0.778
	c0.425-0.322,0.824-0.671,1.21-1.033c1.037,1.359,2.63,2.291,4.428,2.485c0.243,0.026,0.483,0.039,0.721,0.039
	c0.604,0,1.196-0.083,1.768-0.252c3.703-1.098,6.063-6.41,2.527-9.058c-0.762-0.571-1.591-1.051-2.464-1.43
	c-0.532-0.23-1.641-0.518-1.937-1.073c-0.172-0.322,0.258-1.591,0.059-1.733c0.24,0.171,0.479,0.343,0.717,0.509
	c4.133,2.877,8.242,3.492,11.571,1.733c1.197-0.633,2.059-1.461,2.75-2.127c0.339-0.327,0.723-0.698,0.937-0.82
	c0.466-0.267,1.733-0.267,2.57-0.27l13.644-0.016c0.885,0,1.743-0.296,2.441-0.841c3.963-3.082,6.891-7.443,8.244-12.279
	c0.625-2.231,0.034-5.472-2.292-7.078c-1.681-1.16-3.85-1.118-5.526,0.117c-3.548,2.613-11.478-0.675-14.46-1.912
	c-3.464-1.435-6.699-3.897-9.824-6.273l-5.236-3.982c-1.27-0.968-2.54-1.935-3.775-2.942c-6.051-4.948-11.38-11.029-16.535-16.916
	l-6.115-6.976c-0.719-0.822-1.462-1.671-1.808-2.426c-0.218-0.475-0.349-0.986-0.494-1.489c-0.219-0.768-0.449-1.531-0.756-2.265
	c-1.3-3.1-3.937-5.534-7.055-6.701l2.069-2.174c0.656-0.69,2.021-2.127,2.146-4.33c0.123-2.14-0.999-3.697-1.538-4.447
	l-8.673-12.025c-0.902-1.248-2.44-1.873-3.962-1.585c-1.972,0.368-3.278,1.546-4.143,2.325c-0.101,0.093-0.2,0.189-0.287,0.275
	c-0.311-0.231-0.847-0.716-1.641-1.728c-1.185-1.505-2.349-2.557-3.454-3.277c2.997,0.221,6.006,0.466,9.01,0.789
	c2.098,0.56,4.291,0.856,6.63,0.734c2.059-0.104,3.698-1.762,3.78-3.822s-1.422-3.842-3.466-4.11
	c-1.778-0.233-3.565-0.449-5.356-0.646c-2.978-0.882-5.964-2.566-9.063-4.314c-2.349-1.326-4.778-2.698-7.341-3.798
	c-10.062-4.312-20.852-3.853-31.291-3.409c-8.224,0.355-16.004,0.688-23.321-1.162c-0.096-4.994-3.735-8.157-6.668-10.707
	c-0.174-0.153-0.348-0.304-0.527-0.462c0.406-0.9,0.826-1.845,1.247-2.792c0.606-1.359,1.21-2.719,1.772-3.946
	c0.628-1.375,0.425-2.984-0.521-4.159c-0.394-0.49-0.738-1.017-1.026-1.57c0.187-0.215,0.362-0.446,0.521-0.69
	c1.012-1.554,1.126-3.212,1.193-4.203l0.724-10.57c0.03-0.438,0.101-1.463-0.365-2.584c-0.688-1.653-2.382-3.521-6.577-2.934
	c-0.777,0.106-2.028-0.241-3.233-0.581c-2.435-0.68-5.769-1.611-9.06,0.166c-0.754,0.407-1.378,0.898-1.912,1.396
	c-0.425-1.227-1.225-2.441-2.734-3.303c-0.285-0.163-0.582-0.298-0.911-0.423c-0.01-0.055-0.019-0.114-0.027-0.182
	c-0.031-0.283-0.048-0.571-0.067-0.856c-0.07-1.09-0.157-2.444-0.742-3.873c-0.675-1.642-1.566-2.937-2.589-3.829
	c-0.038-6.419,1.004-12.938,3.048-18.999l0.291-0.851c0.566-1.637,1.195-3.461,1.457-5.464c1.756-0.438,4.263-1.894,5.289-6.527
	c0.139-0.625,0.55-1.365,1.025-2.221c0.68-1.225,1.449-2.61,1.838-4.369c0.178-0.802,0.102-1.632-0.206-2.382
	c0.266-0.368,0.832-0.926,1.577-1.328l0.477-0.257c2.693-1.437,6.764-3.611,7.172-8.266c0.084-0.957-0.025-1.782-0.112-2.444
	c-0.021-0.153-0.048-0.304-0.062-0.454c0.088-0.112,0.187-0.218,0.28-0.329c0.553-0.662,1.31-1.567,1.767-2.862
	c0.538-1.531,0.431-2.971,0.352-4.024c-0.004-0.052-0.009-0.104-0.013-0.158c1.071-0.56,2.911-1.66,3.431-4.063
	c0.636-2.911-1.282-5.002-2.004-5.788c-2.314-2.519-3.701-4.818-4.241-7.028c-0.558-2.286-0.105-4.618,1.155-5.939
	c0.163-0.171,0.34-0.335,0.514-0.498c0.701-0.656,1.66-1.557,2.325-2.882c0.59-1.175,0.768-2.322,0.899-3.163
	c0.038-0.241,0.071-0.485,0.128-0.726c0.246-1.053,1.367-1.985,2.446-2.037c1.803-0.086,3.308-1.367,3.698-3.1
	c0.639-0.148,1.244-0.457,1.75-0.911c1.047-0.937,1.522-2.358,1.25-3.736c-0.59-3.004-1.2-6.11-0.831-8.894
	c0.355-2.68,1.954-5.754,3.353-6.452c1.343-0.669,2.197-2.034,2.209-3.536l0.08-10.282c0.01-1.346,0.03-3.85-1.736-5.9
	c-0.424-0.49-0.878-0.861-1.262-1.144c0.499-0.441,1.35-0.892,2.06-1.266c1.169-0.62,1.954-1.777,2.098-3.09
	s-0.374-2.613-1.38-3.469l-0.876-0.745c0.171-1.069,0.396-2.174,0.627-3.318c0.201-0.983,0.403-1.987,0.58-3.004
	c2.079-1.113,3.445-3.347,4.06-5.212c0.053-0.163,0.117-0.317,0.18-0.454c0.843-0.054,1.666-0.376,2.335-0.95
	c1.206-1.033,1.685-2.68,1.218-4.198c-1.686-5.487-5.588-10.105-10.522-12.91c2.706-0.148,5.426-0.044,8.091,0.332
	c1.873,0.254,3.688-0.828,4.318-2.62c1.009-2.864,1.721-5.85,2.116-8.87c0.249-1.909-0.903-3.726-2.737-4.312l-12.636-4.042
	c-0.089-1.668,0.422-3.404,1.445-4.685c0.538-0.674,0.844-1.507,0.87-2.369l0.188-6.395c0.004-0.156,0.012-0.423,0.029-0.628
	c0.088-0.075,0.182-0.15,0.272-0.226c0.972-0.825,3.249-2.76,2.632-5.949c-0.236-1.212-1.02-2.247-2.124-2.802
	c-1.619-0.812-3.633-1.824-4.348-3.064c-0.204-0.48-0.067-1.707,0.223-2.236c1.044-0.501,1.828-1.435,2.13-2.568
	c0.339-1.269,0.03-2.625-0.826-3.622c-2.044-2.384-4.56-4.304-7.376-5.645c-0.096-0.649-0.224-1.256-0.341-1.811
	c-0.174-0.822-0.411-1.948-0.276-2.304c0.197-0.521,0.659-1.04,1.243-1.699c1.174-1.328,2.784-3.144,3.146-6.156
	c0.244-2.024-0.019-4.125-0.401-6.208c1.323-0.407,2.356-1.484,2.693-2.856c2.133-8.704,2.393-17.958,0.751-26.764
	c-0.131-0.706-0.275-1.409-0.419-2.112c-0.27-1.323-0.545-2.646-0.712-3.985c-0.694-5.557,0.528-11.439,1.71-17.126
	c0.043-0.202,0.083-0.381,0.121-0.54c0.784-0.233,1.498-0.708,2.026-1.398c1.175-1.536,1.078-3.692-0.231-5.116
	c-0.314-0.342-0.437-0.991-0.315-1.653c0.122-0.662,0.47-1.225,0.885-1.432c1.707-0.854,2.57-2.797,2.057-4.634
	c-0.782-2.81-0.682-5.871,0.284-8.621c0.248-0.708,0.291-1.468,0.127-2.195c0.21-0.348,0.629-0.887,0.926-1.271
	c0.808-1.04,1.724-2.221,2.305-3.728c1.091-2.828,0.525-5.669,0.071-7.949c-0.187-0.934-0.498-2.498-0.432-2.831
	c0.293-0.179,1.463-0.254,2.162-0.301c1.1-0.073,2.345-0.153,3.635-0.506c3.117-0.854,5.69-3.321,6.88-6.598
	c1.191-3.279,0.802-6.821-1.043-9.477c-0.214-0.306-0.448-0.604-0.682-0.9c-0.112-0.14-0.231-0.272-0.331-0.415
	c0.013-0.2,0.055-0.4,0.082-0.599c0.061-0.438,0.118-0.88,0.144-1.31c0.213-3.461-1.339-6.323-2.585-8.621
	c-0.581-1.074-1.13-2.086-1.441-3.015c-0.637-1.896-0.531-4.296-0.427-6.616l0.914-20.392c0.095-2.117,0.711-4.836,1.484-7.337
	c0.534-0.099,1.056-0.275,1.54-0.529c1.018-0.532,1.699-1.225,2.196-1.73c0.121-0.122,0.233-0.252,0.263-0.291
	c0.175-0.086,0.37-0.135,0.558-0.195c0.787-0.254,1.865-0.602,2.91-1.44c1.619-1.297,2.251-3.056,2.668-4.221
	c0.062-0.171,0.115-0.345,0.178-0.511c0.665-0.182,1.681-0.49,2.635-1.251c2.086-1.663,2.349-4.182,2.462-5.261
	c0.616-5.97,1.384-13.4-1.942-20.021l-0.285-0.553c-0.2-0.379-0.506-0.937-0.544-0.89c0.042-0.163,0.274-0.61,0.438-0.926
	c3.767-7.22,6.758-14.866,8.89-22.735c0.237-0.034,0.472-0.091,0.703-0.169c1.118-0.376,2.011-1.23,2.439-2.33
	c1.734-4.455,1.623-8.901,1.515-13.203c-0.08-3.261-0.158-6.343,0.608-9.106c0.706-2.543-0.184-5.272-2.323-7.124
	c-0.825-0.713-1.754-1.225-2.723-1.523c0.031-0.262,0.095-0.516,0.193-0.755c0.135-0.329,0.313-0.654,0.484-0.978
	c0.742-1.409,1.862-3.536,1.331-6.151c-0.301-1.481-1.029-2.558-1.644-3.466c-2.122-3.152-3.688-6.898-5.2-10.523
	c-0.861-2.06-0.75-2.986-0.451-5.453l0.141-1.209c0.405-3.681-0.339-5.145-2.131-7.609l-0.715-0.996
	c-1.472-2.091-1.585-5.285-1.575-8.932c0.004-1.1,0.008-2.239,0.28-2.945c0.193-0.498,0.654-1.126,1.142-1.793
	c0.215-0.296,0.431-0.589,0.638-0.89c2.51-3.617,3.942-7.851,4.142-12.238c0.018-0.405,0.027-0.815,0.035-1.227
	c0.013-0.607,0.026-1.263,0.09-1.801c0.787,0.371,1.694,0.488,2.584,0.283c1.727-0.392,2.989-1.876,3.096-3.643
	c0.392-6.374,0.206-12.824-0.549-19.175c-0.424-3.565,0.935-7.674,2.322-11.226c2.3-5.897,3.86-12.061,4.643-18.335
	c3.355-0.882,6.154-3.739,7.751-7.952c0.318-0.838,0.591-1.699,0.863-2.561c0.493-1.567,0.96-3.048,1.697-4.084
	c0.345-0.483,0.756-0.913,1.16-1.352c0.612-0.662,1.306-1.414,1.932-2.33c1.667-2.434,2.462-5.368,3.23-8.203
	c0.161-0.592,0.319-1.173,0.48-1.733c2.092,0.483,4.209-0.101,6.936-2.249c5.005-3.946,6.851-7.368,5.485-10.173l-5.024-10.336
	c-0.501-1.03-0.663-1.559-0.712-1.824c0.083-0.086,0.187-0.184,0.271-0.267c0.831-0.809,2.562-2.491,2.249-5.451l-2.266-21.611
	c-0.012-0.106-0.026-0.215-0.038-0.324c0.087-0.07,0.176-0.138,0.262-0.208c1.051-0.859,3.237-2.641,2.943-5.739
	c-0.162-1.705-1.044-2.854-1.714-3.728c-0.846-1.142-1.179-3.355-0.948-4.198c3.949-2.236,7.892-4.81,11.707-7.301
	c3.798-2.475,7.724-5.038,11.536-7.181c0.951-0.534,1.64-1.435,1.908-2.493c2.497-9.83,4.959-17.551,7.528-23.606
	c0.701-1.653,0.211-3.57-1.196-4.683c-2.384-1.884-5.562-2.537-8.481-1.917c-0.62-0.737-1.472-1.238-2.44-1.372
	c-1.169-0.158-2.321,0.179-3.196,0.975c-0.525,0.265-2.099-0.156-2.572-0.786c-1.838-2.436-2.358-5.954-2.908-9.68l-0.173-1.155
	c-0.289-1.902-0.297-4.143-0.304-6.517c-0.021-6.216-0.044-13.26-5.361-17.689c-3.309-2.755-5.018-7.231-5.865-10.461
	c0.746-1.302,1.122-2.81,1.046-4.33c-0.07-1.417-0.887-2.688-2.144-3.339c-1.097-0.571-2.155-1.162-3.212-1.756
	c-0.54-0.301-1.079-0.604-1.624-0.903c0.036-2.229,1.404-4.548,3.401-5.451c1.197-0.542,2.051-1.637,2.282-2.932
	c0.231-1.295-0.191-2.618-1.127-3.541c-0.234-0.228-0.366-0.646-0.306-0.965c0.182-0.983,1.702-2.275,2.709-3.129
	c0.869-0.739,1.382-1.813,1.405-2.952c0.025-1.142-0.441-2.236-1.279-3.012c-3.474-3.212-7.424-6.919-10.889-10.725l-2.101-20.651
	c-0.108-1.059-0.636-2.031-1.465-2.698c-0.829-0.669-1.896-0.988-2.949-0.856c-1.365,0.153-2.095,0.088-2.449,0.013
	c-0.019-0.189-0.035-0.42-0.048-0.61c-0.026-0.384-0.053-0.765-0.1-1.144c-0.407-3.282-2.808-6.323-6.118-7.744
	c-3-1.292-6.216-1.014-8.604,0.75c-1.284,0.947-1.88,2.568-1.514,4.122c0.607,2.571,1.235,5.228,1.01,7.615
	c-0.178,1.876-0.988,3.513-2.091,4.26c-0.555,0.125-1.782,0.285-2.627,0.397c-4.008,0.527-6.905,0.908-7.935,3.715
	c-0.475,1.297-0.211,2.413-0.109,2.849c0.719,2.994,0.667,6.271,0.611,9.742c-0.032,2.016-0.066,4.102,0.057,6.193
	c0.079,1.344,0.83,2.55,1.982,3.214l0.084,5.983c0.014,1.059,0.232,3.596,1.864,5.404c-0.458,10.253-0.588,20.638-0.388,30.907
	c0.013,0.659,0.048,2.405,1.352,3.853l-0.149,14.684c-0.575,0.511-1.001,1.183-1.206,1.954c-0.697,2.597-0.965,5.277-0.799,7.965
	c0,0.008,0.018,0.278,0.018,0.285c0.013,0.184,0.036,0.374,0.053,0.49c-0.791,0.711-1.265,1.712-1.314,2.776l-0.335,7.259
	c-0.79,0.617-1.695,1.749-1.789,3.726l-0.022,0.459c-0.032,0.01-0.064,0.023-0.096,0.036c-0.211,0.078-0.42,0.169-0.647,0.223
	c-1.423,0.337-2.545,1.427-2.925,2.838c-0.396,1.468-0.402,2.872-0.409,4.006l-0.029,6.556l-0.021,0.317
	c-0.219,2.818,0.71,4.74,2.828,5.747l0.009,0.112c-0.075,0.034-0.15,0.07-0.228,0.106c-1.374,0.664-2.247,2.057-2.249,3.583
	l-0.027,18.374c0,0.296-0.035,0.841-0.077,1.549c-0.412,7.228-0.332,11.799,1.184,14.544c-0.302,0.293-0.726,0.662-1.323,1.126
	c-0.761,0.589-1.573,1.201-2.388,1.816c-0.887,0.669-1.776,1.339-2.605,1.982c-1.068,0.83-1.641,2.143-1.526,3.489
	c0.87,10.092,1.043,20.343,0.512,30.469c-0.006,0.132-0.017,0.252-0.029,0.363c-0.14,0-0.28,0.005-0.419,0.013
	c-1.51,0.104-2.959,0.848-3.876,1.995c-0.85,1.064-1.205,2.379-0.998,3.705c0.119,0.767,0.458,1.44,0.932,1.985l0.004,3.189
	c0.001,0.885,0.005,3.142,1.681,4.846c-0.798,0.719-1.424,1.663-1.759,2.714c-0.027,0.088-0.055,0.176-0.08,0.267
	c-0.497,0.239-1.053,0.607-1.55,1.183c-1.057,1.227-1.157,2.613-1.196,3.152c-0.077,1.121-0.276,2.182-0.488,3.305
	c-0.419,2.218-0.894,4.735-0.349,7.778c0.223,1.25,0.082,2.584-0.4,3.759c-0.158,0.389-0.348,0.763-0.534,1.139
	c-0.394,0.796-0.842,1.697-1.162,2.758l-0.158,0.563c-0.016,0.055-0.03,0.112-0.039,0.156c-0.113,0.086-0.236,0.161-0.354,0.241
	l-2.863,1.969c-1.122,0.771-1.772,2.063-1.725,3.422l0.353,10.11c0.049,1.414,0.846,2.696,2.092,3.368l1.807,0.975
	c0.769,4.852,0.685,9.856-0.325,14.666c-0.484,0.288-0.933,0.651-1.328,1.087c-0.715,0.784-1.1,1.588-1.381,2.174l-0.151,0.306
	c-0.346,0.672-0.934,1.245-1.615,1.577c-1.358,0.662-2.226,2.034-2.24,3.544l-0.208,21.445c-0.013,1.388,0.738,2.626,1.852,3.352
	l-0.241,8.678c-0.022,0.815-0.075,2.716,1.334,4.327c0.205,0.236,0.431,0.449,0.673,0.636c0.101,2.312-0.071,4.626-0.518,6.911
	c-0.676,3.458-0.121,6.024,1.651,7.651c-0.095,0.322-0.21,0.656-0.363,1.056c-0.288,0.755-0.34,1.58-0.149,2.366
	c0.297,1.214,0.048,2.613-0.65,3.648c-0.433,0.646-0.669,1.401-0.678,2.179c-0.054,4.569-0.512,9.163-1.362,13.665
	c-0.249,0.163-0.492,0.332-0.719,0.521c-2.523,2.081-2.587,5.101-2.626,6.904c-0.012,0.54-0.03,1.357-0.125,1.603
	c-0.084,0.179-0.511,0.636-0.793,0.939c-0.697,0.75-1.566,1.684-2.182,3.002c-0.765,1.634-0.843,3.212-0.907,4.481
	c-0.03,0.581-0.057,1.131-0.145,1.455c-0.1,0.366-0.38,1.398-0.632,1.863c-0.669,0.371-1.219,0.931-1.583,1.614
	c-1.375,2.592-1.174,5.254-1.012,7.391c0.029,0.384,0.058,0.771,0.075,1.149c0.113,2.426-0.366,5.033-0.93,7.726
	c-0.157,0.08-0.317,0.171-0.477,0.275c-0.768,0.503-1.766,1.484-2.16,3.303c-0.309,1.414-0.261,2.74-0.223,3.806
	c0.016,0.413,0.034,0.828,0.018,1.24c-0.008,0.223-0.035,0.402-0.099,0.542c-0.462,0.143-1.095,0.335-1.78,0.7
	c-1.423,0.763-2.508,2.12-2.901,3.63c-0.129,0.496-0.158,0.992-0.14,1.483c-0.125,0.204-0.24,0.416-0.329,0.647
	c-0.432,1.113-0.556,2.197-0.656,3.069c-0.014,0.122-0.025,0.244-0.036,0.363c-0.143,0.057-0.283,0.119-0.42,0.184
	c-2.044,0.991-3.41,3.095-3.565,5.49c-0.114,1.782,0.455,3.487,1.537,4.758l-0.468,0.236c-1.531,0.786-3.672,2.127-4.59,4.696
	c-0.676,1.899-0.37,3.702-0.185,4.784l0.051,0.293c0.239,1.388,0.464,2.701,0.384,3.814c-0.092,1.279-0.614,2.703-1.166,4.216
	c-0.187,0.508-0.532,1.455-0.76,1.671c-0.121,0.114-0.545,0.348-0.854,0.521c-0.544,0.302-1.212,0.689-1.878,1.212
	c-1.489,0.525-2.613,1.933-2.673,3.617l-0.302,8.323c-1.26,0.018-2.528,0.054-3.798,0.112c-2.011,0.096-3.803,1.04-4.797,2.522
	c-0.402,0.599-0.634,1.3-0.669,2.021c-0.305,6.177-0.588,12.352-0.848,18.527c-0.058,1.383,0.604,2.698,1.751,3.471
	c0.533,0.361,1.134,0.579,1.751,0.654c0.131,0.112,0.254,0.213,0.361,0.298c0.113,0.093,0.23,0.182,0.28,0.21
	c0.01,0.026,0.202,0.506-0.206,2.086c-0.907,0.778-1.439,1.943-1.387,3.191c0.158,3.788,0.128,6.95-0.097,10.256
	c-0.083,1.219,0.398,2.392,1.275,3.199c0.327,2.06,1.26,4.024,2.701,5.575c-0.052,0.916,0.004,2.185,0.704,3.453
	c0.633,1.149,1.524,1.829,2.226,2.275c-0.105,3.754-0.748,7.615-1.445,11.452c-0.326,0.156-0.671,0.358-1.012,0.628
	c-1.733,1.378-2.331,3.601-1.699,5.892c-1.029,0.477-1.956,1.17-2.703,2.024c-1.139,0.298-2.181,0.963-2.903,1.886
	c-1.278,1.632-1.344,3.474-1.38,4.47l-0.163,4.727c-0.017,0.023-0.031,0.047-0.047,0.07c-1.864,2.831-1.021,5.757-0.463,7.695
	c0.182,0.633,0.41,1.422,0.396,1.78l-0.276,0.384c-0.396,0.348-1.06,0.929-1.57,1.832c-1.134,2.003-0.71,3.995-0.483,5.067
	c0.027,0.13,0.061,0.259,0.084,0.389c-0.108,0.21-0.326,0.55-0.479,0.791c-0.314,0.493-0.623,0.988-0.88,1.5
	c-0.999,1.977-1.074,4.372-0.195,6.247c0.17,0.366,0.375,0.706,0.61,1.017l-0.192,8.349c-0.017,0.729,0.167,1.448,0.532,2.081
	l0.645,1.118c0.451,0.784,1.155,1.391,1.995,1.72c0.285,0.112,0.507,0.21,0.68,0.293c-0.058,0.361-0.106,0.786-0.099,1.258
	c0.003,0.169,0.022,0.375,0.046,0.588c-2.575,0.256-4.824,1.566-6.107,3.636c-0.638,1.03-0.922,2.055-1.13,2.805
	c-0.481,1.743-1.073,3.884-0.846,6.278c-0.057,0.049-0.113,0.104-0.169,0.158c-0.927,0.916-1.391,2.127-1.376,3.583l0.027,4.304
	c-0.516,0.48-0.942,1.066-1.237,1.741c-0.983,2.234-0.292,4.864,1.596,6.346l-0.097,5.427c-0.493,0.501-0.834,0.976-0.973,1.253
	c-0.652,1.308-0.588,2.498-0.436,3.277c-3.572,2.441-3.888,5.095-3.513,6.906c0.047,0.226,0.104,0.436,0.169,0.633
	c-0.03,0.067-0.06,0.14-0.088,0.215c-0.524,1.346-0.475,2.836,0.139,4.193c0.668,1.479,1.93,2.649,3.454,3.209
	c0.891,0.33,1.767,0.436,2.558,0.436c0.929,0,1.743-0.148,2.339-0.254l8.084-1.448c0.837-0.15,2.58-0.462,3.927-1.943
	c0.536-0.592,0.882-1.23,1.118-1.819c0.348-0.073,0.715-0.187,1.09-0.361c1.188-0.563,2.654-1.819,2.891-4.626
	c0.332-3.941,0.576-7.949,0.728-11.919c0.018-0.496,0.071-2.003-1.025-3.368c-0.401-0.501-1.083-1.139-2.142-1.461
	c-0.048-0.529-0.08-1.064-0.097-1.598c0.9-0.016,1.885-0.252,2.841-0.921c0.88-0.615,1.47-1.557,1.645-2.61
	c1.06-0.498,1.851-1.437,2.156-2.576c0.756-2.828-1.122-4.745-1.829-5.469l-0.097-0.101c-0.047-0.35-0.004-1.097,0.026-1.611
	c0.057-0.975,0.121-2.083-0.044-3.274c-0.052-0.378-0.164-0.717-0.271-1.061c0.961-0.1,1.872-0.394,2.66-0.877
	c1.376-0.195,2.712-0.861,3.77-1.948c0.416-0.431,0.752-0.882,1.033-1.331c0.01,0.138,0.027,0.272,0.052,0.407l0.61,3.373
	c0.507,2.805,1.881,4.154,3.099,4.805c0.178,0.41,0.402,0.802,0.668,1.167c-0.782,0.501-1.463,1.191-1.96,2.039
	c-0.952,1.621-1.021,3.269-1.066,4.364c-0.014,0.327-0.01,0.641,0.01,0.944c-0.483,0.143-0.939,0.381-1.343,0.703
	c-0.952,0.76-1.505,1.915-1.498,3.134c0.001,0.324,0.013,0.88,0.03,1.609c0.234,10.832-0.131,14.734-0.449,16.129
	c-0.638,0.688-1.033,1.601-1.061,2.594c-0.001,0.073-0.021,0.158-0.052,0.249c-1.606,0.742-2.915,2.2-3.466,4.065
	c-0.575,1.938-0.233,3.746-0.006,4.95c0.106,0.558,0.328,1.72,1.258,2.794c0.389,0.446,0.812,0.771,1.208,1.012
	c-0.174,0.257-0.354,0.553-0.52,0.895c-0.726,1.505-0.72,2.978-0.716,3.951c0,0.174,0.01,0.35,0.003,0.519
	c-0.086,0.101-0.18,0.197-0.27,0.293c-0.809,0.887-2.315,2.54-2.155,5.072c0.043,0.675,0.204,1.248,0.367,1.681
	c-0.121,0.153-0.259,0.327-0.39,0.488c-2.793,3.464-1.972,6.284-1.362,7.503c-0.302,0.265-0.576,0.568-0.816,0.913
	c-0.656,0.943-0.621,2.104-1.162,3.093c-0.093,0.169-0.2,0.33-0.293,0.498c-0.174,0.315-0.295,0.656-0.442,0.985
	c-0.021,0.048-0.046,0.099-0.092,0.123c-0.036,0.019-0.079,0.018-0.12,0.017c-0.149-0.005-0.298-0.01-0.447-0.015
	c-0.004,0,0.47-0.646,0.527-0.733c0.212-0.323,0.325-0.778,0.437-1.144c0.24-0.786,0.373-1.604,0.397-2.425
	c0.035-1.243-0.219-2.299-0.777-3.23c-0.904-1.513-2.227-2.14-3.192-2.457c-0.152-0.675-0.422-1.559-1.022-2.434
	c-1.084-1.572-2.624-2.522-4.338-2.675c-1.291-0.143-3.282,0.174-5.331,2.234c-1.752,1.762-3.116,4.604-2.72,7.421
	c-1.86-0.221-3.941-0.327-5.649,0.546c-1.956,1.001-3.104,2.911-3.073,5.106c0.036,2.409,1.523,4.719,3.703,5.808
	c-0.31,1.017-0.224,1.9-0.181,2.279c0.131,1.186,0.352,2.361,0.614,3.527c-0.212,0.066-0.43,0.099-0.637,0.191
	c-1.872,0.838-3.172,2.571-3.391,4.527c-0.262,2.356,0.968,4.133,1.554,4.981l1.122,1.627c0.108,0.156,0.219,0.285,0.33,0.422
	c-0.38,0.725-0.632,1.535-0.709,2.401c-0.052,0.594-0.027,1.191,0.073,1.782c-0.599,0.358-1.145,0.794-1.618,1.3
	c-1.442,1.551-2.253,3.614-2.371,5.876c-0.972,0.48-1.854,1.157-2.491,2.135c-0.541,0.833-0.826,1.775-0.842,2.747
	c-1.396-0.171-3.774-0.169-5.43,1.948c-0.78,0.994-1.01,2.055-1.121,2.563c-0.362,1.666-0.911,4.185,0.062,6.753
	c0.166,0.444,0.372,0.854,0.614,1.227c-1.627,0.337-3.705,1.165-4.649,3.645c-0.407,1.074-0.394,2.044-0.332,2.794
	c-0.117,0.114-0.278,0.265-0.484,0.449L487.295,817.513z"/>
</svg>
